# xmcd
#
# Track frame offsets: 
#        150
#        14715
#        33110
#        50157
#        67267
#        77099
#        107847
#        131820
#        143517
#        156570
#        172783
#        184067
#
# Disc length: 2609 seconds
#
# Revision: 0
# Processed by: cddbd v1.5.2PL0 Copyright (c) Steve Scherf et al.
# Submitted via: ExactAudioCopy v0.99pb5
#
DISCID=a90a2f0c
DTITLE=Max Tavrichesky - 10 Gr Blues
DYEAR=2007
DGENRE=Blues
TTITLE0=Sweet Home Chicago
TTITLE1=Mean Old Frisco
TTITLE2=I Get Evil
TTITLE3=Gotta Serve Somebody
TTITLE4=Great Balls Of Fire
TTITLE5=I'll Play The Blues For You
TTITLE6=Hoochie Coochie Man
TTITLE7=Too Tired
TTITLE8=San Francisco Bay Blues
TTITLE9=Worried Life Blues
TTITLE10=Bottle Up And Go
TTITLE11=Snake Rattle And Roll
EXTD=
EXTT0=
EXTT1=
EXTT2=
EXTT3=
EXTT4=
EXTT5=
EXTT6=
EXTT7=
EXTT8=
EXTT9=
EXTT10=
EXTT11=
PLAYORDER=
